HIERARCHY
ROOT SpineBase
{
  OFFSET 0.000000 0.000000 0.000000
  CHANNELS 6 Xposition Yposition Zposition Zrotation Xrotation Yrotation
  JOINT SpineMid
  {
    OFFSET 0.000000 27.632500 0.000000
    CHANNELS 3 Zrotation Xrotation Yrotation
    JOINT SpineShoulder
    {
      OFFSET 0.045179 20.471392 -0.668188
      CHANNELS 3 Zrotation Xrotation Yrotation
      JOINT Neck
      {
        OFFSET 0.003871 6.760248 -0.524387
        CHANNELS 3 Zrotation Xrotation Yrotation
        JOINT Head
        {
          OFFSET 3.695569 13.897503 -0.102604
          CHANNELS 3 Zrotation Xrotation Yrotation
          End Site
          {
            OFFSET 0 0 0
          }
        }
      }
      JOINT ShoulderLeft
      {
        OFFSET -15.435438 -3.601571 -6.972695
        CHANNELS 3 Zrotation Xrotation Yrotation
        JOINT ElbowLeft
        {
          OFFSET -4.828617 -23.048883 -2.870727
          CHANNELS 3 Zrotation Xrotation Yrotation
          JOINT WristLeft
          {
            OFFSET 2.921341 -23.666204 -6.123562
            CHANNELS 3 Zrotation Xrotation Yrotation
            JOINT HandLeft
            {
              OFFSET 1.820460 -4.920244 -0.665491
              CHANNELS 3 Zrotation Xrotation Yrotation
              JOINT HandTipLeft
              {
                OFFSET 1.938574 -7.369284 0.301554
                CHANNELS 3 Zrotation Xrotation Yrotation
                End Site
                {
                  OFFSET 0 0 0
                }
              }
              JOINT ThumbLeft
              {
                OFFSET 3.649754 0.757775 -1.267502
                CHANNELS 3 Zrotation Xrotation Yrotation
                End Site
                {
                  OFFSET 0 0 0
                }
              }
            }
          }
        }
      }
      JOINT ShoulderRight
      {
        OFFSET 15.637776 -5.087792 6.419543
        CHANNELS 3 Zrotation Xrotation Yrotation
        JOINT ElbowRight
        {
          OFFSET 0.514965 -25.007457 2.407387
          CHANNELS 3 Zrotation Xrotation Yrotation
          JOINT WristRight
          {
            OFFSET -0.668472 -21.311923 -6.988592
            CHANNELS 3 Zrotation Xrotation Yrotation
            JOINT HandRight
            {
              OFFSET -2.588353 -4.017226 -2.883748
              CHANNELS 3 Zrotation Xrotation Yrotation
              JOINT HandTipRight
              {
                OFFSET -0.380287 -5.330358 -0.344765
                CHANNELS 3 Zrotation Xrotation Yrotation
                End Site
                {
                  OFFSET 0 0 0
                }
              }
              JOINT ThumbRight
              {
                OFFSET -2.234328 1.238060 -3.134615
                CHANNELS 3 Zrotation Xrotation Yrotation
                End Site
                {
                  OFFSET 0 0 0
                }
              }
            }
          }
        }
      }
    }
  }
  JOINT HipLeft
  {
    OFFSET -6.580345 1.111861 -5.647480
    CHANNELS 3 Zrotation Xrotation Yrotation
    JOINT KneeLeft
    {
      OFFSET -9.610675 -34.144386 0.115238
      CHANNELS 3 Zrotation Xrotation Yrotation
      JOINT AnkleLeft
      {
        OFFSET -4.508851 -32.606971 2.422314
        CHANNELS 3 Zrotation Xrotation Yrotation
        JOINT FootLeft
        {
          OFFSET 1.032443 -7.638836 -6.932601
          CHANNELS 3 Zrotation Xrotation Yrotation
          End Site
          {
            OFFSET 0 0 0
          }
        }
      }
    }
  }
  JOINT HipRight
  {
    OFFSET 6.128919 -0.242505 -1.142601
    CHANNELS 3 Zrotation Xrotation Yrotation
    JOINT KneeRight
    {
      OFFSET -6.789822 -35.132014 4.732308
      CHANNELS 3 Zrotation Xrotation Yrotation
      JOINT AnkleRight
      {
        OFFSET -5.458234 -31.042362 3.547804
        CHANNELS 3 Zrotation Xrotation Yrotation
        JOINT FootRight
        {
          OFFSET 1.803155 -8.048162 -5.994863
          CHANNELS 3 Zrotation Xrotation Yrotation
          End Site
          {
            OFFSET 0 0 0
          }
        }
      }
    }
  }
}
MOTION
Frames: 8
Frame Time: 0.033333
27.160008 75.586362 384.131599 -0.000000 0.000000 -19.517196 -0.000000 0.000000 19.517196 -0.000000 0.000000 0.000000 -0.000000 0.000000 0.000000 0.000000 0.000000 0.000000 -0.000000 0.000000 0.000000 -0.000000 0.000000 0.000000 -0.000000 0.000000 0.000000 -0.000000 0.000000 0.000000 0.000000 0.000000 0.000000 0.000000 0.000000 0.000000 -0.000000 0.000000 0.000000 -0.000000 0.000000 0.000000 -0.000000 0.000000 0.000000 -0.000000 0.000000 0.000000 0.000000 0.000000 0.000000 0.000000 0.000000 0.000000 -0.000000 0.000000 19.517196 -0.000000 0.000000 0.000000 -0.000000 0.000000 0.000000 0.000000 0.000000 0.000000 -0.000000 0.000000 19.517196 -0.000000 0.000000 0.000000 -0.000000 0.000000 0.000000 0.000000 0.000000 0.000000
27.182210 75.580070 384.097430 0.006242 0.003203 -19.316371 -0.004831 -0.005088 19.316371 -0.000000 0.000000 0.000000 -0.000000 0.000000 0.000000 0.000000 0.000000 0.000000 -0.000000 0.000000 0.000000 -0.000000 0.000000 0.000000 -0.000000 0.000000 0.000000 -2.109671 0.070641 -0.066780 0.000000 0.000000 0.000000 0.000000 0.000000 0.000000 -0.000000 0.000000 0.000000 -0.000000 0.000000 0.000000 2.332515 -1.460352 -0.719931 -2.411046 3.890704 0.608059 0.000000 0.000000 0.000000 0.000000 0.000000 0.000000 -0.004831 -0.005088 19.316371 -0.000000 0.000000 0.000000 -1.796948 -5.283186 0.871804 0.000000 0.000000 0.000000 -0.004831 -0.005088 19.316371 -0.000000 0.000000 0.000000 1.400653 0.009169 -1.038485 0.000000 0.000000 0.000000
27.203865 75.574614 384.068155 0.004802 0.009674 -19.134184 -0.001366 -0.010713 19.134183 -0.000000 0.000000 0.000000 -0.000000 0.000000 0.000000 0.000000 0.000000 0.000000 -0.000000 0.000000 0.000000 -0.000000 0.000000 0.000000 0.709509 -0.423947 -0.249752 -4.754403 0.517813 0.151923 0.000000 0.000000 0.000000 0.000000 0.000000 0.000000 -0.000000 0.000000 0.000000 -0.000000 0.000000 0.000000 4.141059 -2.809184 -1.107245 -4.409586 7.091818 1.022218 0.000000 0.000000 0.000000 0.000000 0.000000 0.000000 -0.001366 -0.010713 19.134183 -0.000000 0.000000 0.000000 -2.917161 -8.731989 1.340200 0.000000 0.000000 0.000000 -0.001366 -0.010713 19.134183 -0.000000 0.000000 0.000000 2.534687 0.005648 -1.877644 0.000000 0.000000 0.000000
27.224973 75.569993 384.043775 -0.004322 0.019412 -18.970585 0.010398 -0.016952 18.970587 -0.000000 0.000000 0.000000 -0.000000 0.000000 0.000000 0.000000 0.000000 0.000000 -0.000000 0.000000 0.000000 -0.000000 0.000000 0.000000 1.073064 -0.643255 -0.376102 -6.812287 0.726165 0.253658 0.000000 0.000000 0.000000 0.000000 0.000000 0.000000 -0.000000 0.000000 0.000000 -0.000000 0.000000 0.000000 5.440001 -4.028839 -1.185828 -5.950210 9.730449 1.215502 0.000000 0.000000 0.000000 0.000000 0.000000 0.000000 0.010398 -0.016952 18.970587 -0.000000 0.000000 0.000000 -3.373479 -10.228675 1.502218 0.000000 0.000000 0.000000 0.010398 -0.016952 18.970587 -0.000000 0.000000 0.000000 3.396958 0.001389 -2.513647 0.000000 0.000000 0.000000
27.245533 75.566209 384.024288 -0.021134 0.032419 -18.825525 0.030465 -0.023865 18.825537 -0.000000 0.000000 0.000000 -0.000000 0.000000 0.000000 0.000000 0.000000 0.000000 -0.000000 0.000000 0.000000 -0.000000 0.000000 0.000000 1.431648 -0.860958 -0.499642 -8.567583 0.892640 0.363655 0.000000 0.000000 0.000000 0.000000 0.000000 0.000000 -0.000000 0.000000 0.000000 -0.000000 0.000000 0.000000 6.241816 -5.112786 -0.975211 -7.003865 11.896307 1.162152 0.000000 0.000000 0.000000 0.000000 0.000000 0.000000 0.030465 -0.023865 18.825537 -0.000000 0.000000 0.000000 -3.173329 -9.749880 1.402773 0.000000 0.000000 0.000000 0.030465 -0.023865 18.825537 -0.000000 0.000000 0.000000 3.984854 0.005601 -2.944638 0.000000 0.000000 0.000000
27.265545 75.563260 384.009696 -0.045637 0.048696 -18.698958 0.058840 -0.031495 18.698993 -0.000000 0.000000 0.000000 -0.000000 0.000000 0.000000 0.000000 0.000000 0.000000 -0.000000 0.000000 0.000000 -0.000000 0.000000 0.000000 1.776463 -1.071644 -0.617427 -9.965891 1.013922 0.474128 0.000000 0.000000 0.000000 0.000000 0.000000 0.000000 -0.000000 0.000000 0.000000 -0.000000 0.000000 0.000000 6.553506 -6.062579 -0.488886 -7.551797 13.646653 0.837861 0.000000 0.000000 0.000000 0.000000 0.000000 0.000000 0.058840 -0.031495 18.698993 -0.000000 0.000000 0.000000 -2.314180 -7.307080 1.026012 0.000000 0.000000 0.000000 0.058840 -0.031495 18.698993 -0.000000 0.000000 0.000000 4.297257 0.024561 -3.169867 0.000000 0.000000 0.000000
27.291878 75.560837 383.992540 -0.064834 0.066002 -18.544301 0.082459 -0.041955 18.544368 -0.000000 0.000000 0.000000 -0.000000 0.000000 0.000000 0.000000 0.000000 0.000000 -0.000000 0.000000 0.000000 -0.000000 0.000000 0.000000 2.107520 -1.963641 -0.971189 -10.685337 2.493136 1.217350 0.000000 0.000000 0.000000 0.000000 0.000000 0.000000 -0.000000 0.000000 0.000000 -0.000000 0.000000 0.000000 5.414827 -6.396264 0.579240 -7.787551 13.091006 0.110380 0.000000 0.000000 0.000000 0.000000 0.000000 0.000000 0.082459 -0.041955 18.544368 -0.000000 0.000000 0.000000 0.629233 0.093496 -0.558109 0.000000 0.000000 0.000000 0.082459 -0.041955 18.544368 -0.000000 0.000000 0.000000 4.520662 0.192013 -3.299412 0.000000 0.000000 0.000000
27.367727 75.563782 383.982438 -0.002090 0.099201 -18.444866 0.033369 -0.093444 18.444895 -0.000000 0.000000 0.000000 -0.000000 0.000000 0.000000 0.000000 0.000000 0.000000 -0.000000 0.000000 0.000000 -0.868821 -0.426759 0.169216 3.485885 -0.749185 -0.948298 -12.872527 -0.102893 0.176549 0.000000 0.000000 0.000000 0.000000 0.000000 0.000000 -0.000000 0.000000 0.000000 -0.000000 0.000000 0.000000 5.068285 -8.074107 2.093766 -5.356454 12.487113 -1.554741 0.000000 0.000000 0.000000 0.000000 0.000000 0.000000 0.033369 -0.093444 18.444895 -0.000000 0.000000 0.000000 3.111247 4.558946 -2.242146 0.000000 0.000000 0.000000 0.033369 -0.093444 18.444895 -0.000000 0.000000 0.000000 4.316584 0.291752 -3.129317 0.000000 0.000000 0.000000
